<?xml version="1.0" ?><!DOCTYPE svg  PUBLIC '-//W3C//DTD SVG 1.1//EN'  'http://www.w3.org/Graphics/SVG/1.1/DTD/svg11.dtd'><svg enable-background="new 0 0 512 512" id="Layer_1" version="1.1" viewBox="0 0 512 512" xml:space="preserve" xmlns="http://www.w3.org/2000/svg" xmlns:xlink="http://www.w3.org/1999/xlink"><g><path d="M512,256c0,141.4-114.6,256-256,256S0,397.4,0,256S114.6,0,256,0C397.4,0,512,114.6,512,256z"/><path d="M435.6,235.8c-10.8-16.6-28.4-25.7-49.7-25.7c-27.2,0-51.9,21.5-66.6,37.4c-14.6-16-39.4-37.4-66.6-37.4   c-21.3,0-38.9,9.1-49.7,25.7c-3,4.6-5.3,9.5-6.9,14.2c-7.8-19.7-24.8-33.3-49.4-33.3c-14,0-24.6,3.8-34.4,13.6l-0.5-0.5l7-39.9   h72.5v-29.4h-98L76,257.6h32.1c7-9.8,14.1-14.1,26.9-14.1c19.1,0,30.4,14.6,30.4,32.9c0,17.6-11.8,33.9-30.4,33.9   c-15.8,0-27.1-10.5-28.9-26.3H70.5c0.8,36.9,31.1,55.7,65.2,55.7c27.2,0.6,51.5-16,61-40.4c0.8,2.4,1.8,4.8,2.9,7.2   c9.6,19.6,28.5,30.4,53.1,30.4c27.2,0,51.9-21.4,66.6-37.4c14.6,16,39.4,37.4,66.6,37.4l0,0c24.7,0,43.6-10.8,53.1-30.4   c7.1-14.6,7.1-30.1,7.1-35.9v-0.1C446.3,261.6,443.5,247.9,435.6,235.8z M319.4,273.5L319.4,273.5L319.4,273.5L319.4,273.5   L319.4,273.5z M252.8,303.7c-15.6,0-20.6-6.3-23.3-11.8c-3.8-7.7-3.8-17.3-3.8-21.4v-0.1c0-2.2,1-9.9,5.3-16.5   c4.7-7.2,11.6-10.6,21.8-10.6c14.5,0,33,15.9,45.3,30.2C285.8,287.7,267.3,303.7,252.8,303.7z M413.1,270.5c0,4.1,0,13.6-3.8,21.4   c-2.7,5.5-7.7,11.8-23.3,11.8c-14.5,0-33-15.9-45.3-30.2c12.3-14.2,30.8-30.2,45.3-30.2c10.2,0,17.1,3.4,21.8,10.6   c4.3,6.6,5.3,14.3,5.3,16.5V270.5z" fill="#FFFFFF"/></g></svg>
